<svg width="116" height="54" viewBox="0 0 116 54" fill="none" xmlns="http://www.w3.org/2000/svg">
<g filter="url(#filter0_d_119_187)">
<mask id="path-1-outside-1_119_187" maskUnits="userSpaceOnUse" x="3" y="-0.5" width="111" height="47" fill="black">
<rect fill="white" x="3" y="-0.5" width="111" height="47"/>
<path d="M9.85938 10.6328L8.07812 9.55469C6.96094 8.875 6.16406 8.20703 5.6875 7.55078C5.21875 6.88672 4.98438 6.125 4.98438 5.26562C4.98438 3.97656 5.42969 2.92969 6.32031 2.125C7.21875 1.32031 8.38281 0.917969 9.8125 0.917969C11.1797 0.917969 12.4336 1.30078 13.5742 2.06641V4.72656C12.3945 3.59375 11.125 3.02734 9.76562 3.02734C9 3.02734 8.37109 3.20703 7.87891 3.56641C7.38672 3.91797 7.14062 4.37109 7.14062 4.92578C7.14062 5.41797 7.32031 5.87891 7.67969 6.30859C8.03906 6.73828 8.62109 7.1875 9.42578 7.65625L11.2188 8.71094C13.2188 9.89844 14.2188 11.4141 14.2188 13.2578C14.2188 14.5703 13.7773 15.6367 12.8945 16.457C12.0195 17.2773 10.8789 17.6875 9.47266 17.6875C7.85547 17.6875 6.38281 17.1914 5.05469 16.1992V13.2227C6.32031 14.8242 7.78516 15.625 9.44922 15.625C10.1836 15.625 10.793 15.4219 11.2773 15.0156C11.7695 14.6016 12.0156 14.0859 12.0156 13.4688C12.0156 12.4688 11.2969 11.5234 9.85938 10.6328ZM28.3398 1.12891H30.6836V17.5H28.3398V10.375H19.1406V17.5H16.7969V1.12891H19.1406V8.20703H28.3398V1.12891ZM42.3438 0.894531C44.875 0.894531 46.9805 1.69531 48.6602 3.29688C50.3477 4.89844 51.1914 6.90625 51.1914 9.32031C51.1914 11.7344 50.3398 13.7344 48.6367 15.3203C46.9414 16.8984 44.8008 17.6875 42.2148 17.6875C39.7461 17.6875 37.6875 16.8984 36.0391 15.3203C34.3984 13.7344 33.5781 11.75 33.5781 9.36719C33.5781 6.92188 34.4062 4.89844 36.0625 3.29688C37.7188 1.69531 39.8125 0.894531 42.3438 0.894531ZM42.4375 3.12109C40.5625 3.12109 39.0195 3.70703 37.8086 4.87891C36.6055 6.05078 36.0039 7.54688 36.0039 9.36719C36.0039 11.1328 36.6094 12.6016 37.8203 13.7734C39.0312 14.9453 40.5469 15.5312 42.3672 15.5312C44.1953 15.5312 45.7188 14.9336 46.9375 13.7383C48.1641 12.543 48.7773 11.0547 48.7773 9.27344C48.7773 7.53906 48.1641 6.08203 46.9375 4.90234C45.7188 3.71484 44.2188 3.12109 42.4375 3.12109ZM53.9336 17.5V1.10547H59.125C60.6875 1.10547 61.9336 1.52734 62.8633 2.37109C63.793 3.21484 64.2578 4.34766 64.2578 5.76953C64.2578 6.72266 64.0195 7.56641 63.543 8.30078C63.0664 9.03516 62.4141 9.57031 61.5859 9.90625C60.7578 10.2344 59.5703 10.3984 58.0234 10.3984H56.2891V17.5H53.9336ZM58.7148 3.19141H56.2891V8.3125H58.8555C59.8086 8.3125 60.543 8.08984 61.0586 7.64453C61.5742 7.19141 61.832 6.54688 61.832 5.71094C61.832 4.03125 60.793 3.19141 58.7148 3.19141ZM20.875 40.8945C20.875 42.293 20.3945 43.4102 19.4336 44.2461C18.4805 45.082 17.1445 45.5 15.4258 45.5H6.03906V29.2578H13.8906C14.9062 29.2578 15.7891 29.3555 16.5391 29.5508C17.2969 29.7461 17.9062 30.0156 18.3672 30.3594C18.8281 30.6953 19.1719 31.0938 19.3984 31.5547C19.625 32.0156 19.7383 32.5195 19.7383 33.0664C19.7383 33.6602 19.6211 34.2109 19.3867 34.7188C19.1523 35.2188 18.8594 35.6328 18.5078 35.9609C18.1641 36.2812 17.8164 36.5078 17.4648 36.6406C18.5742 37.0781 19.418 37.6328 19.9961 38.3047C20.582 38.9688 20.875 39.832 20.875 40.8945ZM15.1562 33.9336C15.1562 33.1523 14.8984 32.6328 14.3828 32.375C13.8672 32.1172 13.0625 31.9883 11.9688 31.9883H10.9375V35.8789H11.9922C13.1094 35.8789 13.9141 35.75 14.4062 35.4922C14.9062 35.2344 15.1562 34.7148 15.1562 33.9336ZM15.9531 40.6953C15.9531 39.3047 14.9453 38.6094 12.9297 38.6094H10.9375V42.7695H12.9297C14.9453 42.7695 15.9531 42.0781 15.9531 40.6953ZM41.1484 45.5H36.1328L34.8086 42.207H27.7539L26.4062 45.5H21.3906L28.5742 29.2578H33.9883L41.1484 45.5ZM33.6836 39.3828L31.3047 33.4531L28.9023 39.3828H33.6836ZM60.3906 45.5H54.4141L48.2031 37.8945V45.5H43.3047V29.2578H48.2031V36.5234L54.0859 29.2578H59.4062L53.3594 36.8633L60.3906 45.5ZM74.7695 45.5H62.5234V29.2578H74.5703V32.5156H67.4219V35.4922H74.2422V38.7617H67.4219V42.2305H74.7695V45.5ZM93.7891 45.5H88.5273L87.25 42.6172C86.7812 41.5625 86.3594 40.793 85.9844 40.3086C85.6094 39.8164 85.2422 39.5039 84.8828 39.3711C84.5312 39.2305 84.0742 39.1602 83.5117 39.1602H82.9609V45.5H78.0625V29.2578H86.3945C87.7383 29.2578 88.8398 29.5312 89.6992 30.0781C90.5586 30.625 91.1758 31.2891 91.5508 32.0703C91.9336 32.8516 92.125 33.5938 92.125 34.2969C92.125 35.1172 91.9648 35.8125 91.6445 36.3828C91.332 36.9453 91 37.3555 90.6484 37.6133C90.2969 37.8711 89.9023 38.1172 89.4648 38.3516C89.9883 38.6562 90.418 39.0195 90.7539 39.4414C91.0977 39.8555 91.5625 40.6992 92.1484 41.9727L93.7891 45.5ZM87.1328 34.3906C87.1328 33.6406 86.8867 33.1172 86.3945 32.8203C85.9023 32.5234 85.1016 32.375 83.9922 32.375H82.9609V36.2891H84.0156C85.2109 36.2891 86.0273 36.1602 86.4648 35.9023C86.9102 35.6367 87.1328 35.1328 87.1328 34.3906ZM111.156 29.2578L104.793 38.0586V45.5H99.8945V38.1523L93.4141 29.2578H98.5L102.227 34.3672L105.965 29.2578H111.156Z"/>
</mask>
<path d="M9.85938 10.6328L8.07812 9.55469C6.96094 8.875 6.16406 8.20703 5.6875 7.55078C5.21875 6.88672 4.98438 6.125 4.98438 5.26562C4.98438 3.97656 5.42969 2.92969 6.32031 2.125C7.21875 1.32031 8.38281 0.917969 9.8125 0.917969C11.1797 0.917969 12.4336 1.30078 13.5742 2.06641V4.72656C12.3945 3.59375 11.125 3.02734 9.76562 3.02734C9 3.02734 8.37109 3.20703 7.87891 3.56641C7.38672 3.91797 7.14062 4.37109 7.14062 4.92578C7.14062 5.41797 7.32031 5.87891 7.67969 6.30859C8.03906 6.73828 8.62109 7.1875 9.42578 7.65625L11.2188 8.71094C13.2188 9.89844 14.2188 11.4141 14.2188 13.2578C14.2188 14.5703 13.7773 15.6367 12.8945 16.457C12.0195 17.2773 10.8789 17.6875 9.47266 17.6875C7.85547 17.6875 6.38281 17.1914 5.05469 16.1992V13.2227C6.32031 14.8242 7.78516 15.625 9.44922 15.625C10.1836 15.625 10.793 15.4219 11.2773 15.0156C11.7695 14.6016 12.0156 14.0859 12.0156 13.4688C12.0156 12.4688 11.2969 11.5234 9.85938 10.6328ZM28.3398 1.12891H30.6836V17.5H28.3398V10.375H19.1406V17.5H16.7969V1.12891H19.1406V8.20703H28.3398V1.12891ZM42.3438 0.894531C44.875 0.894531 46.9805 1.69531 48.6602 3.29688C50.3477 4.89844 51.1914 6.90625 51.1914 9.32031C51.1914 11.7344 50.3398 13.7344 48.6367 15.3203C46.9414 16.8984 44.8008 17.6875 42.2148 17.6875C39.7461 17.6875 37.6875 16.8984 36.0391 15.3203C34.3984 13.7344 33.5781 11.75 33.5781 9.36719C33.5781 6.92188 34.4062 4.89844 36.0625 3.29688C37.7188 1.69531 39.8125 0.894531 42.3438 0.894531ZM42.4375 3.12109C40.5625 3.12109 39.0195 3.70703 37.8086 4.87891C36.6055 6.05078 36.0039 7.54688 36.0039 9.36719C36.0039 11.1328 36.6094 12.6016 37.8203 13.7734C39.0312 14.9453 40.5469 15.5312 42.3672 15.5312C44.1953 15.5312 45.7188 14.9336 46.9375 13.7383C48.1641 12.543 48.7773 11.0547 48.7773 9.27344C48.7773 7.53906 48.1641 6.08203 46.9375 4.90234C45.7188 3.71484 44.2188 3.12109 42.4375 3.12109ZM53.9336 17.5V1.10547H59.125C60.6875 1.10547 61.9336 1.52734 62.8633 2.37109C63.793 3.21484 64.2578 4.34766 64.2578 5.76953C64.2578 6.72266 64.0195 7.56641 63.543 8.30078C63.0664 9.03516 62.4141 9.57031 61.5859 9.90625C60.7578 10.2344 59.5703 10.3984 58.0234 10.3984H56.2891V17.5H53.9336ZM58.7148 3.19141H56.2891V8.3125H58.8555C59.8086 8.3125 60.543 8.08984 61.0586 7.64453C61.5742 7.19141 61.832 6.54688 61.832 5.71094C61.832 4.03125 60.793 3.19141 58.7148 3.19141ZM20.875 40.8945C20.875 42.293 20.3945 43.4102 19.4336 44.2461C18.4805 45.082 17.1445 45.5 15.4258 45.5H6.03906V29.2578H13.8906C14.9062 29.2578 15.7891 29.3555 16.5391 29.5508C17.2969 29.7461 17.9062 30.0156 18.3672 30.3594C18.8281 30.6953 19.1719 31.0938 19.3984 31.5547C19.625 32.0156 19.7383 32.5195 19.7383 33.0664C19.7383 33.6602 19.6211 34.2109 19.3867 34.7188C19.1523 35.2188 18.8594 35.6328 18.5078 35.9609C18.1641 36.2812 17.8164 36.5078 17.4648 36.6406C18.5742 37.0781 19.418 37.6328 19.9961 38.3047C20.582 38.9688 20.875 39.832 20.875 40.8945ZM15.1562 33.9336C15.1562 33.1523 14.8984 32.6328 14.3828 32.375C13.8672 32.1172 13.0625 31.9883 11.9688 31.9883H10.9375V35.8789H11.9922C13.1094 35.8789 13.9141 35.75 14.4062 35.4922C14.9062 35.2344 15.1562 34.7148 15.1562 33.9336ZM15.9531 40.6953C15.9531 39.3047 14.9453 38.6094 12.9297 38.6094H10.9375V42.7695H12.9297C14.9453 42.7695 15.9531 42.0781 15.9531 40.6953ZM41.1484 45.5H36.1328L34.8086 42.207H27.7539L26.4062 45.5H21.3906L28.5742 29.2578H33.9883L41.1484 45.5ZM33.6836 39.3828L31.3047 33.4531L28.9023 39.3828H33.6836ZM60.3906 45.5H54.4141L48.2031 37.8945V45.5H43.3047V29.2578H48.2031V36.5234L54.0859 29.2578H59.4062L53.3594 36.8633L60.3906 45.5ZM74.7695 45.5H62.5234V29.2578H74.5703V32.5156H67.4219V35.4922H74.2422V38.7617H67.4219V42.2305H74.7695V45.5ZM93.7891 45.5H88.5273L87.25 42.6172C86.7812 41.5625 86.3594 40.793 85.9844 40.3086C85.6094 39.8164 85.2422 39.5039 84.8828 39.3711C84.5312 39.2305 84.0742 39.1602 83.5117 39.1602H82.9609V45.5H78.0625V29.2578H86.3945C87.7383 29.2578 88.8398 29.5312 89.6992 30.0781C90.5586 30.625 91.1758 31.2891 91.5508 32.0703C91.9336 32.8516 92.125 33.5938 92.125 34.2969C92.125 35.1172 91.9648 35.8125 91.6445 36.3828C91.332 36.9453 91 37.3555 90.6484 37.6133C90.2969 37.8711 89.9023 38.1172 89.4648 38.3516C89.9883 38.6562 90.418 39.0195 90.7539 39.4414C91.0977 39.8555 91.5625 40.6992 92.1484 41.9727L93.7891 45.5ZM87.1328 34.3906C87.1328 33.6406 86.8867 33.1172 86.3945 32.8203C85.9023 32.5234 85.1016 32.375 83.9922 32.375H82.9609V36.2891H84.0156C85.2109 36.2891 86.0273 36.1602 86.4648 35.9023C86.9102 35.6367 87.1328 35.1328 87.1328 34.3906ZM111.156 29.2578L104.793 38.0586V45.5H99.8945V38.1523L93.4141 29.2578H98.5L102.227 34.3672L105.965 29.2578H111.156Z" fill="#FAF4EA"/>
<path d="M9.85938 10.6328L10.3861 9.7827L10.3772 9.77731L9.85938 10.6328ZM8.07812 9.55469L7.55837 10.409L7.56032 10.4102L8.07812 9.55469ZM5.6875 7.55078L4.87046 8.12752L4.87835 8.13838L5.6875 7.55078ZM6.32031 2.125L5.65313 1.38009L5.64991 1.383L6.32031 2.125ZM13.5742 2.06641H14.5742V1.53325L14.1315 1.23611L13.5742 2.06641ZM13.5742 4.72656L12.8816 5.44785L14.5742 7.07323V4.72656H13.5742ZM7.87891 3.56641L8.46018 4.38018L8.4686 4.37403L7.87891 3.56641ZM9.42578 7.65625L9.93281 6.79431L9.92913 6.79217L9.42578 7.65625ZM11.2188 8.71094L11.7293 7.85108L11.7258 7.849L11.2188 8.71094ZM12.8945 16.457L12.2138 15.7245L12.2106 15.7275L12.8945 16.457ZM5.05469 16.1992H4.05469V16.7004L4.4562 17.0003L5.05469 16.1992ZM5.05469 13.2227L5.83928 12.6026L4.05469 10.3444V13.2227H5.05469ZM11.2773 15.0156L11.92 15.7818L11.9211 15.7809L11.2773 15.0156ZM10.3772 9.77731L8.59593 8.69919L7.56032 10.4102L9.34157 11.4883L10.3772 9.77731ZM8.59788 8.70037C7.53288 8.05243 6.86221 7.46658 6.49665 6.96318L4.87835 8.13838C5.46591 8.94748 6.389 9.69757 7.55837 10.409L8.59788 8.70037ZM6.50447 6.9741C6.16184 6.48871 5.98438 5.93101 5.98438 5.26562H3.98438C3.98438 6.31899 4.27566 7.28473 4.87053 8.12746L6.50447 6.9741ZM5.98438 5.26562C5.98438 4.23586 6.32677 3.46688 6.99071 2.867L5.64991 1.383C4.5326 2.3925 3.98438 3.71727 3.98438 5.26562H5.98438ZM6.98749 2.8699C7.66951 2.25904 8.58079 1.91797 9.8125 1.91797V-0.0820312C8.18483 -0.0820312 6.76799 0.381582 5.65314 1.3801L6.98749 2.8699ZM9.8125 1.91797C10.9802 1.91797 12.0402 2.24114 13.0169 2.8967L14.1315 1.23611C12.8269 0.360424 11.3792 -0.0820312 9.8125 -0.0820312V1.91797ZM12.5742 2.06641V4.72656H14.5742V2.06641H12.5742ZM14.2669 4.00527C12.9411 2.73223 11.434 2.02734 9.76562 2.02734V4.02734C10.816 4.02734 11.8479 4.45527 12.8816 5.44785L14.2669 4.00527ZM9.76562 2.02734C8.8429 2.02734 7.99217 2.24551 7.28921 2.75878L8.4686 4.37403C8.75002 4.16855 9.1571 4.02734 9.76562 4.02734V2.02734ZM7.29767 2.75267C6.57043 3.27213 6.14062 4.01549 6.14062 4.92578H8.14062C8.14062 4.7267 8.20301 4.56381 8.46014 4.38014L7.29767 2.75267ZM6.14062 4.92578C6.14062 5.6847 6.42478 6.36688 6.91261 6.95015L8.44676 5.66704C8.21584 5.39094 8.14062 5.15124 8.14062 4.92578H6.14062ZM6.91261 6.95015C7.37945 7.50832 8.07487 8.02661 8.92243 8.52033L9.92913 6.79217C9.16732 6.34839 8.69868 5.96824 8.44676 5.66704L6.91261 6.95015ZM8.91876 8.51818L10.7117 9.57287L11.7258 7.849L9.9328 6.79432L8.91876 8.51818ZM10.7082 9.57079C12.4964 10.6325 13.2188 11.8619 13.2188 13.2578H15.2188C15.2188 10.9662 13.9411 9.16433 11.7293 7.85108L10.7082 9.57079ZM13.2188 13.2578C13.2188 14.32 12.8736 15.1114 12.2138 15.7245L13.5752 17.1896C14.681 16.1621 15.2188 14.8206 15.2188 13.2578H13.2188ZM12.2106 15.7275C11.5525 16.3445 10.6716 16.6875 9.47266 16.6875V18.6875C11.0862 18.6875 12.4866 18.2102 13.5785 17.1866L12.2106 15.7275ZM9.47266 16.6875C8.07695 16.6875 6.81315 16.2647 5.65318 15.3981L4.4562 17.0003C5.95248 18.1182 7.63399 18.6875 9.47266 18.6875V16.6875ZM6.05469 16.1992V13.2227H4.05469V16.1992H6.05469ZM4.2701 13.8427C5.67784 15.6241 7.41003 16.625 9.44922 16.625V14.625C8.16028 14.625 6.96278 14.0244 5.83928 12.6026L4.2701 13.8427ZM9.44922 16.625C10.3786 16.625 11.227 16.363 11.92 15.7818L10.6347 14.2494C10.3589 14.4808 9.9886 14.625 9.44922 14.625V16.625ZM11.9211 15.7809C12.6282 15.186 13.0156 14.3951 13.0156 13.4688H11.0156C11.0156 13.7768 10.9108 14.0172 10.6336 14.2504L11.9211 15.7809ZM13.0156 13.4688C13.0156 11.9341 11.9107 10.7274 10.386 9.78274L9.3327 11.4829C10.683 12.3195 11.0156 13.0034 11.0156 13.4688H13.0156ZM28.3398 1.12891V0.128906H27.3398V1.12891H28.3398ZM30.6836 1.12891H31.6836V0.128906H30.6836V1.12891ZM30.6836 17.5V18.5H31.6836V17.5H30.6836ZM28.3398 17.5H27.3398V18.5H28.3398V17.5ZM28.3398 10.375H29.3398V9.375H28.3398V10.375ZM19.1406 10.375V9.375H18.1406V10.375H19.1406ZM19.1406 17.5V18.5H20.1406V17.5H19.1406ZM16.7969 17.5H15.7969V18.5H16.7969V17.5ZM16.7969 1.12891V0.128906H15.7969V1.12891H16.7969ZM19.1406 1.12891H20.1406V0.128906H19.1406V1.12891ZM19.1406 8.20703H18.1406V9.20703H19.1406V8.20703ZM28.3398 8.20703V9.20703H29.3398V8.20703H28.3398ZM28.3398 2.12891H30.6836V0.128906H28.3398V2.12891ZM29.6836 1.12891V17.5H31.6836V1.12891H29.6836ZM30.6836 16.5H28.3398V18.5H30.6836V16.5ZM29.3398 17.5V10.375H27.3398V17.5H29.3398ZM28.3398 9.375H19.1406V11.375H28.3398V9.375ZM18.1406 10.375V17.5H20.1406V10.375H18.1406ZM19.1406 16.5H16.7969V18.5H19.1406V16.5ZM17.7969 17.5V1.12891H15.7969V17.5H17.7969ZM16.7969 2.12891H19.1406V0.128906H16.7969V2.12891ZM18.1406 1.12891V8.20703H20.1406V1.12891H18.1406ZM19.1406 9.20703H28.3398V7.20703H19.1406V9.20703ZM29.3398 8.20703V1.12891H27.3398V8.20703H29.3398ZM48.6602 3.29688L47.9701 4.02061L47.9718 4.02221L48.6602 3.29688ZM48.6367 15.3203L49.3181 16.0523L49.3182 16.0521L48.6367 15.3203ZM36.0391 15.3203L35.344 16.0393L35.3475 16.0427L36.0391 15.3203ZM37.8086 4.87891L37.1132 4.1603L37.1109 4.16256L37.8086 4.87891ZM46.9375 13.7383L46.2396 13.0221L46.2373 13.0243L46.9375 13.7383ZM46.9375 4.90234L46.2396 5.61859L46.2443 5.62309L46.9375 4.90234ZM42.3438 1.89453C44.6435 1.89453 46.494 2.61321 47.9701 4.02061L49.3502 2.57314C47.4669 0.777412 45.1065 -0.105469 42.3438 -0.105469V1.89453ZM47.9718 4.02221C49.452 5.42711 50.1914 7.16891 50.1914 9.32031H52.1914C52.1914 6.64359 51.2433 4.36977 49.3486 2.57154L47.9718 4.02221ZM50.1914 9.32031C50.1914 11.4685 49.4468 13.1995 47.9552 14.5885L49.3182 16.0521C51.2329 14.2692 52.1914 12.0003 52.1914 9.32031H50.1914ZM47.9554 14.5884C46.4672 15.9737 44.5798 16.6875 42.2148 16.6875V18.6875C45.0218 18.6875 47.4156 17.8232 49.3181 16.0523L47.9554 14.5884ZM42.2148 16.6875C39.9807 16.6875 38.1769 15.9825 36.7306 14.598L35.3475 16.0427C37.1981 17.8143 39.5115 18.6875 42.2148 18.6875V16.6875ZM36.7341 14.6013C35.2978 13.2129 34.5781 11.4923 34.5781 9.36719H32.5781C32.5781 12.0077 33.499 14.2558 35.344 16.0393L36.7341 14.6013ZM34.5781 9.36719C34.5781 7.17436 35.3092 5.41639 36.7576 4.01575L35.3674 2.578C33.5033 4.38049 32.5781 6.66939 32.5781 9.36719H34.5781ZM36.7576 4.01575C38.2082 2.61307 40.0439 1.89453 42.3438 1.89453V-0.105469C39.5811 -0.105469 37.2293 0.777557 35.3674 2.578L36.7576 4.01575ZM42.4375 2.12109C40.3348 2.12109 38.5323 2.78693 37.1132 4.1603L38.504 5.59751C39.5067 4.62713 40.7902 4.12109 42.4375 4.12109V2.12109ZM37.1109 4.16256C35.6972 5.53946 35.0039 7.30215 35.0039 9.36719H37.0039C37.0039 7.7916 37.5137 6.5621 38.5063 5.59526L37.1109 4.16256ZM35.0039 9.36719C35.0039 11.3892 35.7091 13.1219 37.1249 14.492L38.5157 13.0548C37.5096 12.0812 37.0039 10.8764 37.0039 9.36719H35.0039ZM37.1249 14.492C38.5382 15.8597 40.3102 16.5312 42.3672 16.5312V14.5312C40.7835 14.5312 39.5243 14.0309 38.5157 13.0548L37.1249 14.492ZM42.3672 16.5312C44.4367 16.5312 46.2179 15.8447 47.6377 14.4522L46.2373 13.0243C45.2196 14.0224 43.9539 14.5312 42.3672 14.5312V16.5312ZM47.6354 14.4545C49.0636 13.0626 49.7773 11.3123 49.7773 9.27344H47.7773C47.7773 10.7971 47.2645 12.0233 46.2396 13.0221L47.6354 14.4545ZM49.7773 9.27344C49.7773 7.27297 49.0575 5.55385 47.6307 4.1816L46.2443 5.62309C47.2706 6.61021 47.7773 7.80516 47.7773 9.27344H49.7773ZM47.6354 4.18611C46.2204 2.80744 44.4659 2.12109 42.4375 2.12109V4.12109C43.9716 4.12109 45.2171 4.62225 46.2396 5.61857L47.6354 4.18611ZM53.9336 17.5H52.9336V18.5H53.9336V17.5ZM53.9336 1.10547V0.105469H52.9336V1.10547H53.9336ZM61.5859 9.90625L61.9543 10.836L61.9618 10.8329L61.5859 9.90625ZM56.2891 10.3984V9.39844H55.2891V10.3984H56.2891ZM56.2891 17.5V18.5H57.2891V17.5H56.2891ZM56.2891 3.19141V2.19141H55.2891V3.19141H56.2891ZM56.2891 8.3125H55.2891V9.3125H56.2891V8.3125ZM61.0586 7.64453L61.7122 8.40138L61.7187 8.3957L61.0586 7.64453ZM54.9336 17.5V1.10547H52.9336V17.5H54.9336ZM53.9336 2.10547H59.125V0.105469H53.9336V2.10547ZM59.125 2.10547C60.5024 2.10547 61.4876 2.47301 62.1912 3.1116L63.5353 1.63059C62.3796 0.581676 60.8726 0.105469 59.125 0.105469V2.10547ZM62.1912 3.1116C62.8833 3.73968 63.2578 4.58833 63.2578 5.76953H65.2578C65.2578 4.10699 64.7027 2.69001 63.5353 1.63059L62.1912 3.1116ZM63.2578 5.76953C63.2578 6.5473 63.0662 7.19848 62.7041 7.75642L64.3818 8.84514C64.9729 7.93434 65.2578 6.89801 65.2578 5.76953H63.2578ZM62.7041 7.75642C62.3415 8.31517 61.8525 8.71895 61.21 8.97959L61.9618 10.8329C62.9756 10.4217 63.7913 9.75514 64.3818 8.84514L62.7041 7.75642ZM61.2176 8.97657C60.5627 9.23603 59.5232 9.39844 58.0234 9.39844V11.3984C59.6174 11.3984 60.9529 11.2327 61.9543 10.8359L61.2176 8.97657ZM58.0234 9.39844H56.2891V11.3984H58.0234V9.39844ZM55.2891 10.3984V17.5H57.2891V10.3984H55.2891ZM56.2891 16.5H53.9336V18.5H56.2891V16.5ZM58.7148 2.19141H56.2891V4.19141H58.7148V2.19141ZM55.2891 3.19141V8.3125H57.2891V3.19141H55.2891ZM56.2891 9.3125H58.8555V7.3125H56.2891V9.3125ZM58.8555 9.3125C59.9534 9.3125 60.954 9.05619 61.7122 8.40135L60.405 6.88771C60.132 7.1235 59.6638 7.3125 58.8555 7.3125V9.3125ZM61.7187 8.3957C62.4968 7.71193 62.832 6.76634 62.832 5.71094H60.832C60.832 6.32741 60.6517 6.67088 60.3985 6.89337L61.7187 8.3957ZM62.832 5.71094C62.832 4.65393 62.4946 3.70094 61.6813 3.04357C60.9087 2.41909 59.8626 2.19141 58.7148 2.19141V4.19141C59.6452 4.19141 60.1577 4.38364 60.4241 4.59901C60.6499 4.78148 60.832 5.08826 60.832 5.71094H62.832ZM19.4336 44.2461L18.7773 43.4916L18.7742 43.4943L19.4336 44.2461ZM6.03906 45.5H5.03906V46.5H6.03906V45.5ZM6.03906 29.2578V28.2578H5.03906V29.2578H6.03906ZM16.5391 29.5508L16.2871 30.5185L16.2895 30.5191L16.5391 29.5508ZM18.3672 30.3594L17.7693 31.1611L17.7782 31.1675L18.3672 30.3594ZM19.3867 34.7188L20.2922 35.1432L20.2947 35.1378L19.3867 34.7188ZM18.5078 35.9609L19.1895 36.6925L19.1901 36.692L18.5078 35.9609ZM17.4648 36.6406L17.1114 35.7052L14.6882 36.6206L17.098 37.5709L17.4648 36.6406ZM19.9961 38.3047L19.238 38.957L19.2463 38.9663L19.9961 38.3047ZM10.9375 31.9883V30.9883H9.9375V31.9883H10.9375ZM10.9375 35.8789H9.9375V36.8789H10.9375V35.8789ZM14.4062 35.4922L13.948 34.6034L13.9422 34.6064L14.4062 35.4922ZM10.9375 38.6094V37.6094H9.9375V38.6094H10.9375ZM10.9375 42.7695H9.9375V43.7695H10.9375V42.7695ZM19.875 40.8945C19.875 42.0355 19.4969 42.8656 18.7773 43.4916L20.0899 45.0006C21.2921 43.9547 21.875 42.5505 21.875 40.8945H19.875ZM18.7742 43.4943C18.0597 44.121 16.9889 44.5 15.4258 44.5V46.5C17.3002 46.5 18.9012 46.0431 20.093 44.9979L18.7742 43.4943ZM15.4258 44.5H6.03906V46.5H15.4258V44.5ZM7.03906 45.5V29.2578H5.03906V45.5H7.03906ZM6.03906 30.2578H13.8906V28.2578H6.03906V30.2578ZM13.8906 30.2578C14.8459 30.2578 15.6402 30.3501 16.2871 30.5185L16.7911 28.5831C15.9379 28.3609 14.9666 28.2578 13.8906 28.2578V30.2578ZM16.2895 30.5191C16.9641 30.693 17.4428 30.9175 17.7694 31.161L18.965 29.5577C18.3697 29.1138 17.6297 28.7992 16.7886 28.5824L16.2895 30.5191ZM17.7782 31.1675C18.1228 31.4187 18.3536 31.6959 18.501 31.9958L20.2959 31.1136C19.9902 30.4916 19.5334 29.972 18.9562 29.5512L17.7782 31.1675ZM18.501 31.9958C18.6557 32.3107 18.7383 32.6623 18.7383 33.0664H20.7383C20.7383 32.3767 20.5943 31.7206 20.2959 31.1136L18.501 31.9958ZM18.7383 33.0664C18.7383 33.5246 18.6488 33.9313 18.4788 34.2997L20.2947 35.1378C20.5934 34.4906 20.7383 33.7958 20.7383 33.0664H18.7383ZM18.4813 34.2943C18.2931 34.6958 18.071 35.0007 17.8255 35.2299L19.1901 36.692C19.6477 36.2649 20.0116 35.7417 20.2922 35.1432L18.4813 34.2943ZM17.8261 35.2293C17.5545 35.4824 17.3151 35.6282 17.1114 35.7052L17.8182 37.5761C18.3178 37.3874 18.7736 37.0801 19.1895 36.6925L17.8261 35.2293ZM17.098 37.5709C18.1062 37.9685 18.796 38.4432 19.2381 38.9569L20.7541 37.6524C20.0399 36.8224 19.0422 36.1877 17.8317 35.7104L17.098 37.5709ZM19.2463 38.9663C19.6401 39.4127 19.875 40.0246 19.875 40.8945H21.875C21.875 39.6395 21.524 38.5248 20.7459 37.6431L19.2463 38.9663ZM16.1562 33.9336C16.1562 32.93 15.8048 31.9679 14.83 31.4806L13.9356 33.2694C13.9921 33.2977 14.1562 33.3747 14.1562 33.9336H16.1562ZM14.83 31.4806C14.1 31.1156 13.1024 30.9883 11.9688 30.9883V32.9883C13.0226 32.9883 13.6344 33.1188 13.9356 33.2694L14.83 31.4806ZM11.9688 30.9883H10.9375V32.9883H11.9688V30.9883ZM9.9375 31.9883V35.8789H11.9375V31.9883H9.9375ZM10.9375 36.8789H11.9922V34.8789H10.9375V36.8789ZM11.9922 36.8789C13.139 36.8789 14.1515 36.7545 14.8703 36.378L13.9422 34.6064C13.6766 34.7455 13.0797 34.8789 11.9922 34.8789V36.8789ZM14.8645 36.381C15.8231 35.8867 16.1562 34.9225 16.1562 33.9336H14.1562C14.1562 34.5072 13.9894 34.582 13.948 34.6034L14.8645 36.381ZM16.9531 40.6953C16.9531 39.7231 16.5797 38.8697 15.7651 38.3077C15.0177 37.7921 14.0215 37.6094 12.9297 37.6094V39.6094C13.8535 39.6094 14.369 39.7743 14.6294 39.954C14.8227 40.0873 14.9531 40.2769 14.9531 40.6953H16.9531ZM12.9297 37.6094H10.9375V39.6094H12.9297V37.6094ZM9.9375 38.6094V42.7695H11.9375V38.6094H9.9375ZM10.9375 43.7695H12.9297V41.7695H10.9375V43.7695ZM12.9297 43.7695C14.0208 43.7695 15.016 43.588 15.763 43.0756C16.5778 42.5166 16.9531 41.6659 16.9531 40.6953H14.9531C14.9531 41.1075 14.8245 41.294 14.6316 41.4264C14.3707 41.6053 13.8542 41.7695 12.9297 41.7695V43.7695ZM41.1484 45.5V46.5H42.6821L42.0635 45.0966L41.1484 45.5ZM36.1328 45.5L35.205 45.8731L35.4571 46.5H36.1328V45.5ZM34.8086 42.207L35.7364 41.8339L35.4843 41.207H34.8086V42.207ZM27.7539 42.207V41.207H27.0827L26.8284 41.8283L27.7539 42.207ZM26.4062 45.5V46.5H27.0775L27.3317 45.8788L26.4062 45.5ZM21.3906 45.5L20.4761 45.0955L19.8549 46.5H21.3906V45.5ZM28.5742 29.2578V28.2578H27.9231L27.6597 28.8533L28.5742 29.2578ZM33.9883 29.2578L34.9033 28.8544L34.6403 28.2578H33.9883V29.2578ZM33.6836 39.3828V40.3828H35.1623L34.6117 39.0105L33.6836 39.3828ZM31.3047 33.4531L32.2328 33.0808L31.3092 30.7787L30.3779 33.0776L31.3047 33.4531ZM28.9023 39.3828L27.9755 39.0073L27.4183 40.3828H28.9023V39.3828ZM41.1484 44.5H36.1328V46.5H41.1484V44.5ZM37.0606 45.1269L35.7364 41.8339L33.8808 42.5801L35.205 45.8731L37.0606 45.1269ZM34.8086 41.207H27.7539V43.207H34.8086V41.207ZM26.8284 41.8283L25.4808 45.1212L27.3317 45.8788L28.6794 42.5858L26.8284 41.8283ZM26.4062 44.5H21.3906V46.5H26.4062V44.5ZM22.3052 45.9045L29.4888 29.6623L27.6597 28.8533L20.4761 45.0955L22.3052 45.9045ZM28.5742 30.2578H33.9883V28.2578H28.5742V30.2578ZM33.0732 29.6612L40.2334 45.9034L42.0635 45.0966L34.9033 28.8544L33.0732 29.6612ZM34.6117 39.0105L32.2328 33.0808L30.3766 33.8255L32.7555 39.7552L34.6117 39.0105ZM30.3779 33.0776L27.9755 39.0073L29.8292 39.7583L32.2315 33.8286L30.3779 33.0776ZM28.9023 40.3828H33.6836V38.3828H28.9023V40.3828ZM60.3906 45.5V46.5H62.4942L61.1661 44.8687L60.3906 45.5ZM54.4141 45.5L53.6395 46.1325L53.9396 46.5H54.4141V45.5ZM48.2031 37.8945L48.9777 37.262L47.2031 35.089V37.8945H48.2031ZM48.2031 45.5V46.5H49.2031V45.5H48.2031ZM43.3047 45.5H42.3047V46.5H43.3047V45.5ZM43.3047 29.2578V28.2578H42.3047V29.2578H43.3047ZM48.2031 29.2578H49.2031V28.2578H48.2031V29.2578ZM48.2031 36.5234H47.2031V39.3476L48.9803 37.1527L48.2031 36.5234ZM54.0859 29.2578V28.2578H53.6089L53.3088 28.6285L54.0859 29.2578ZM59.4062 29.2578L60.189 29.8802L61.4789 28.2578H59.4062V29.2578ZM53.3594 36.8633L52.5766 36.2409L52.0759 36.8707L52.5839 37.4946L53.3594 36.8633ZM60.3906 44.5H54.4141V46.5H60.3906V44.5ZM55.1886 44.8675L48.9777 37.262L47.4286 38.5271L53.6395 46.1325L55.1886 44.8675ZM47.2031 37.8945V45.5H49.2031V37.8945H47.2031ZM48.2031 44.5H43.3047V46.5H48.2031V44.5ZM44.3047 45.5V29.2578H42.3047V45.5H44.3047ZM43.3047 30.2578H48.2031V28.2578H43.3047V30.2578ZM47.2031 29.2578V36.5234H49.2031V29.2578H47.2031ZM48.9803 37.1527L54.8631 29.8871L53.3088 28.6285L47.4259 35.8942L48.9803 37.1527ZM54.0859 30.2578H59.4062V28.2578H54.0859V30.2578ZM58.6235 28.6355L52.5766 36.2409L54.1421 37.4856L60.189 29.8802L58.6235 28.6355ZM52.5839 37.4946L59.6151 46.1313L61.1661 44.8687L54.1349 36.2319L52.5839 37.4946ZM74.7695 45.5V46.5H75.7695V45.5H74.7695ZM62.5234 45.5H61.5234V46.5H62.5234V45.5ZM62.5234 29.2578V28.2578H61.5234V29.2578H62.5234ZM74.5703 29.2578H75.5703V28.2578H74.5703V29.2578ZM74.5703 32.5156V33.5156H75.5703V32.5156H74.5703ZM67.4219 32.5156V31.5156H66.4219V32.5156H67.4219ZM67.4219 35.4922H66.4219V36.4922H67.4219V35.4922ZM74.2422 35.4922H75.2422V34.4922H74.2422V35.4922ZM74.2422 38.7617V39.7617H75.2422V38.7617H74.2422ZM67.4219 38.7617V37.7617H66.4219V38.7617H67.4219ZM67.4219 42.2305H66.4219V43.2305H67.4219V42.2305ZM74.7695 42.2305H75.7695V41.2305H74.7695V42.2305ZM74.7695 44.5H62.5234V46.5H74.7695V44.5ZM63.5234 45.5V29.2578H61.5234V45.5H63.5234ZM62.5234 30.2578H74.5703V28.2578H62.5234V30.2578ZM73.5703 29.2578V32.5156H75.5703V29.2578H73.5703ZM74.5703 31.5156H67.4219V33.5156H74.5703V31.5156ZM66.4219 32.5156V35.4922H68.4219V32.5156H66.4219ZM67.4219 36.4922H74.2422V34.4922H67.4219V36.4922ZM73.2422 35.4922V38.7617H75.2422V35.4922H73.2422ZM74.2422 37.7617H67.4219V39.7617H74.2422V37.7617ZM66.4219 38.7617V42.2305H68.4219V38.7617H66.4219ZM67.4219 43.2305H74.7695V41.2305H67.4219V43.2305ZM73.7695 42.2305V45.5H75.7695V42.2305H73.7695ZM93.7891 45.5V46.5H95.3571L94.6958 45.0783L93.7891 45.5ZM88.5273 45.5L87.6131 45.9051L87.8767 46.5H88.5273V45.5ZM87.25 42.6172L88.1643 42.2121L88.1638 42.211L87.25 42.6172ZM85.9844 40.3086L85.1889 40.9147L85.1937 40.9208L85.9844 40.3086ZM84.8828 39.3711L84.5114 40.2996L84.5237 40.3045L84.5362 40.3091L84.8828 39.3711ZM82.9609 39.1602V38.1602H81.9609V39.1602H82.9609ZM82.9609 45.5V46.5H83.9609V45.5H82.9609ZM78.0625 45.5H77.0625V46.5H78.0625V45.5ZM78.0625 29.2578V28.2578H77.0625V29.2578H78.0625ZM91.5508 32.0703L90.6492 32.5031L90.6528 32.5103L91.5508 32.0703ZM91.6445 36.3828L90.7726 35.8931L90.7704 35.8972L91.6445 36.3828ZM89.4648 38.3516L88.9926 37.4701L87.4148 38.3153L88.9618 39.2158L89.4648 38.3516ZM90.7539 39.4414L89.9716 40.0643L89.978 40.0723L89.9845 40.0802L90.7539 39.4414ZM92.1484 41.9727L91.24 42.3907L91.2417 42.3944L92.1484 41.9727ZM82.9609 32.375V31.375H81.9609V32.375H82.9609ZM82.9609 36.2891H81.9609V37.2891H82.9609V36.2891ZM86.4648 35.9023L86.9725 36.7639L86.9771 36.7612L86.4648 35.9023ZM93.7891 44.5H88.5273V46.5H93.7891V44.5ZM89.4416 45.0949L88.1643 42.2121L86.3357 43.0223L87.6131 45.9051L89.4416 45.0949ZM88.1638 42.211C87.6857 41.1354 87.225 40.2776 86.7751 39.6964L85.1937 40.9208C85.4937 41.3084 85.8768 41.9896 86.3362 43.0233L88.1638 42.211ZM86.7798 39.7026C86.3539 39.1435 85.8453 38.6607 85.2295 38.4331L84.5362 40.3091C84.6391 40.3471 84.8649 40.4893 85.1889 40.9146L86.7798 39.7026ZM85.2542 38.4426C84.7418 38.2376 84.1454 38.1602 83.5117 38.1602V40.1602C84.003 40.1602 84.3207 40.2233 84.5114 40.2996L85.2542 38.4426ZM83.5117 38.1602H82.9609V40.1602H83.5117V38.1602ZM81.9609 39.1602V45.5H83.9609V39.1602H81.9609ZM82.9609 44.5H78.0625V46.5H82.9609V44.5ZM79.0625 45.5V29.2578H77.0625V45.5H79.0625ZM78.0625 30.2578H86.3945V28.2578H78.0625V30.2578ZM86.3945 30.2578C87.6075 30.2578 88.5071 30.5048 89.1623 30.9218L90.2361 29.2345C89.1726 28.5577 87.869 28.2578 86.3945 28.2578V30.2578ZM89.1623 30.9218C89.8922 31.3863 90.3683 31.9178 90.6493 32.503L92.4523 31.6376C91.9832 30.6604 91.225 29.8637 90.2361 29.2345L89.1623 30.9218ZM90.6528 32.5103C90.9841 33.1864 91.125 33.7781 91.125 34.2969H93.125C93.125 33.4094 92.8831 32.5167 92.4488 31.6303L90.6528 32.5103ZM91.125 34.2969C91.125 34.9886 90.9902 35.5058 90.7726 35.8931L92.5164 36.8725C92.9395 36.1192 93.125 35.2458 93.125 34.2969H91.125ZM90.7704 35.8972C90.4974 36.3886 90.2505 36.665 90.0571 36.8069L91.2398 38.4197C91.7495 38.0459 92.1667 37.502 92.5187 36.8685L90.7704 35.8972ZM90.0571 36.8069C89.7482 37.0334 89.3943 37.2549 88.9926 37.4701L89.9371 39.233C90.4104 38.9795 90.8456 38.7088 91.2398 38.4197L90.0571 36.8069ZM88.9618 39.2158C89.3911 39.4657 89.7219 39.7507 89.9716 40.0643L91.5362 38.8185C91.114 38.2883 90.5855 37.8468 89.9679 37.4873L88.9618 39.2158ZM89.9845 40.0802C90.2334 40.38 90.6504 41.1092 91.24 42.3907L93.0569 41.5547C92.4746 40.2892 91.9619 39.331 91.5233 38.8027L89.9845 40.0802ZM91.2417 42.3944L92.8823 45.9217L94.6958 45.0783L93.0552 41.5509L91.2417 42.3944ZM88.1328 34.3906C88.1328 33.4118 87.7945 32.4969 86.911 31.964L85.878 33.6766C85.979 33.7375 86.1328 33.8695 86.1328 34.3906H88.1328ZM86.911 31.964C86.1752 31.5202 85.1426 31.375 83.9922 31.375V33.375C85.0606 33.375 85.6295 33.5267 85.878 33.6766L86.911 31.964ZM83.9922 31.375H82.9609V33.375H83.9922V31.375ZM81.9609 32.375V36.2891H83.9609V32.375H81.9609ZM82.9609 37.2891H84.0156V35.2891H82.9609V37.2891ZM84.0156 37.2891C84.6446 37.2891 85.2034 37.2555 85.6804 37.1801C86.1446 37.1068 86.5988 36.9841 86.9725 36.7639L85.9572 35.0408C85.8934 35.0784 85.7206 35.149 85.3685 35.2046C85.029 35.2582 84.5819 35.2891 84.0156 35.2891V37.2891ZM86.9771 36.7612C87.8452 36.2433 88.1328 35.3177 88.1328 34.3906H86.1328C86.1328 34.9479 85.9751 35.0301 85.9526 35.0435L86.9771 36.7612ZM111.156 29.2578L111.967 29.8437L113.113 28.2578H111.156V29.2578ZM104.793 38.0586L103.983 37.4727L103.793 37.7349V38.0586H104.793ZM104.793 45.5V46.5H105.793V45.5H104.793ZM99.8945 45.5H98.8945V46.5H99.8945V45.5ZM99.8945 38.1523H100.895V37.8267L100.703 37.5635L99.8945 38.1523ZM93.4141 29.2578V28.2578H91.4482L92.6058 29.8467L93.4141 29.2578ZM98.5 29.2578L99.3079 28.6685L99.0084 28.2578H98.5V29.2578ZM102.227 34.3672L101.419 34.9565L102.225 36.0625L103.034 34.9577L102.227 34.3672ZM105.965 29.2578V28.2578H105.457L105.158 28.6673L105.965 29.2578ZM110.346 28.6719L103.983 37.4727L105.603 38.6445L111.967 29.8437L110.346 28.6719ZM103.793 38.0586V45.5H105.793V38.0586H103.793ZM104.793 44.5H99.8945V46.5H104.793V44.5ZM100.895 45.5V38.1523H98.8945V45.5H100.895ZM100.703 37.5635L94.2223 28.6689L92.6058 29.8467L99.0863 38.7412L100.703 37.5635ZM93.4141 30.2578H98.5V28.2578H93.4141V30.2578ZM97.6921 29.8471L101.419 34.9565L103.034 33.7779L99.3079 28.6685L97.6921 29.8471ZM103.034 34.9577L106.772 29.8483L105.158 28.6673L101.42 33.7767L103.034 34.9577ZM105.965 30.2578H111.156V28.2578H105.965V30.2578Z" fill="black" mask="url(#path-1-outside-1_119_187)"/>
</g>
<defs>
<filter id="filter0_d_119_187" x="0.984375" y="0.894531" width="114.172" height="52.6055" filterUnits="userSpaceOnUse" color-interpolation-filters="sRGB">
<feFlood flood-opacity="0" result="BackgroundImageFix"/>
<feColorMatrix in="SourceAlpha" type="matrix" values="0 0 0 0 0 0 0 0 0 0 0 0 0 0 0 0 0 0 127 0" result="hardAlpha"/>
<feOffset dy="4"/>
<feGaussianBlur stdDeviation="2"/>
<feComposite in2="hardAlpha" operator="out"/>
<feColorMatrix type="matrix" values="0 0 0 0 0 0 0 0 0 0 0 0 0 0 0 0 0 0 0.25 0"/>
<feBlend mode="normal" in2="BackgroundImageFix" result="effect1_dropShadow_119_187"/>
<feBlend mode="normal" in="SourceGraphic" in2="effect1_dropShadow_119_187" result="shape"/>
</filter>
</defs>
</svg>
